Coordinates
version=1
nRows=40
nColumns=38
inDegrees=no

Units are S.I. units (second, meters, Newtons, ...)
If the header above contains a line with 'inDegrees', this indicates whether rotational values are in degrees (yes) or radians (no).

endheader
time	pelvis_tilt	pelvis_list	pelvis_rotation	pelvis_tx	pelvis_ty	pelvis_tz	hip_flexion_r	hip_adduction_r	hip_rotation_r	knee_angle_r	ankle_angle_r	subtalar_angle_r	mtp_angle_r	hip_flexion_l	hip_adduction_l	hip_rotation_l	knee_angle_l	ankle_angle_l	subtalar_angle_l	mtp_angle_l	lumbar_extension	lumbar_bending	lumbar_rotation	arm_flex_r	arm_add_r	arm_rot_r	elbow_flex_r	pro_sup_r	wrist_flex_r	wrist_dev_r	arm_flex_l	arm_add_l	arm_rot_l	elbow_flex_l	pro_sup_l	wrist_flex_l	wrist_dev_l
1.78	0.0878386	0.0311076	0.0813552	1.66366	1.0038	-0.246572	-0.0825232	0.00983866	-0.197758	0.244893	0.365579	0	0	0.38282	-0.0157957	-0.0207524	1.0705	0.265702	0	0	-0.20271	0.00790716	-0.0264308	0.0818922	-0.188806	-0.269322	0.829534	0.197368	0	0	-0.0716108	-0.222143	-0.074923	0.852182	1.0745	0	0
1.79	0.0866469	0.0340291	0.0772754	1.67482	1.00348	-0.246274	-0.100848	0.00782402	-0.189685	0.23236	0.367103	0	0	0.39532	-0.00901086	-0.0213271	1.02494	0.268238	0	0	-0.203811	0.00344758	-0.0198275	0.0884308	-0.194037	-0.260619	0.846836	0.19726	0	0	-0.081937	-0.224241	-0.0837029	0.85768	1.06775	0	0
1.8	0.0866146	0.0362001	0.0733773	1.68609	1.00299	-0.246011	-0.121147	0.00667257	-0.182679	0.218427	0.369981	0	0	0.403904	-0.00305881	-0.0207493	0.974335	0.272211	0	0	-0.205919	-0.000107558	-0.0131882	0.0946932	-0.199691	-0.250817	0.863333	0.197405	0	0	-0.0918977	-0.225446	-0.0932042	0.86286	1.07018	0	0
1.81	0.0871268	0.0381247	0.0690434	1.69748	1.00227	-0.245764	-0.141762	0.00519147	-0.180395	0.205364	0.374792	0	0	0.409144	0.00254739	-0.0196856	0.918767	0.276714	0	0	-0.20852	-0.00345213	-0.00698998	0.101844	-0.205407	-0.240019	0.878535	0.198362	0	0	-0.102182	-0.225665	-0.105429	0.867824	1.0811	0	0
1.82	0.086447	0.0385693	0.0634955	1.70894	1.00118	-0.245451	-0.160859	0.00526521	-0.172433	0.192307	0.376757	0	0	0.413686	0.00585448	-0.0192852	0.859963	0.279341	0	0	-0.209757	-0.00534675	0.00144725	0.10918	-0.210851	-0.232909	0.892065	0.198036	0	0	-0.110741	-0.225852	-0.115377	0.870667	1.07445	0	0
1.83	0.0859569	0.0389793	0.0574044	1.72048	0.999843	-0.245141	-0.180232	0.00508344	-0.165993	0.179303	0.380249	0	0	0.415187	0.00903887	-0.0181219	0.796599	0.283129	0	0	-0.211208	-0.00727229	0.00979421	0.115595	-0.216503	-0.224709	0.907159	0.198243	0	0	-0.118703	-0.225537	-0.127242	0.870387	1.07575	0	0
1.84	0.0860584	0.0390804	0.050931	1.73214	0.998347	-0.244856	-0.200431	0.00483178	-0.161124	0.166347	0.385896	0	0	0.413962	0.0117627	-0.0161229	0.729388	0.286293	0	0	-0.21293	-0.00888167	0.0182852	0.121448	-0.222349	-0.215514	0.922992	0.199456	0	0	-0.126424	-0.224705	-0.137659	0.869973	1.08599	0	0
1.85	0.0843718	0.0365757	0.0446888	1.74371	0.996506	-0.244591	-0.218076	0.00757851	-0.150458	0.153727	0.387541	0	0	0.413898	0.0113495	-0.013209	0.661402	0.289415	0	0	-0.21274	-0.00765665	0.0273567	0.126877	-0.228013	-0.208614	0.93863	0.198439	0	0	-0.133433	-0.223606	-0.144928	0.870008	1.07938	0	0
1.86	0.0838244	0.0351555	0.0388286	1.75561	0.994544	-0.244394	-0.23682	0.00892464	-0.143695	0.142354	0.391973	0	0	0.409948	0.012285	-0.0127979	0.59021	0.293734	0	0	-0.21319	-0.00766719	0.0350584	0.132471	-0.232963	-0.201443	0.951897	0.198505	0	0	-0.140595	-0.222339	-0.152818	0.868987	1.08121	0	0
1.87	0.0834593	0.0341085	0.0336598	1.76777	0.992402	-0.244249	-0.254894	0.00964821	-0.142059	0.133288	0.399364	0	0	0.402588	0.0137072	-0.00198264	0.514609	0.297029	0	0	-0.21358	-0.00814751	0.0416451	0.138016	-0.237434	-0.193515	0.963937	0.199963	0	0	-0.148013	-0.220751	-0.16178	0.867597	1.09217	0	0
1.88	0.0827965	0.031601	0.0291489	1.78003	0.99002	-0.244109	-0.272384	0.0124977	-0.134802	0.124725	0.40212	0	0	0.393974	0.01374	0.00960828	0.438544	0.301853	0	0	-0.213274	-0.00705057	0.0480454	0.143086	-0.241162	-0.188008	0.975378	0.198564	0	0	-0.154244	-0.219745	-0.168031	0.864966	1.08393	0	0
1.89	0.0828985	0.0302122	0.0263276	1.79252	0.987533	-0.244114	-0.289032	0.0138818	-0.140093	0.119561	0.409293	0	0	0.383015	0.0155567	0.0220343	0.362655	0.304062	0	0	-0.213397	-0.00716852	0.0513038	0.148627	-0.243656	-0.181606	0.984203	0.19958	0	0	-0.160888	-0.218658	-0.175657	0.860707	1.09178	0	0
1.9	0.0821651	0.0278403	0.0230594	1.80498	0.984957	-0.244151	-0.304084	0.0162741	-0.13586	0.114939	0.412682	0	0	0.371015	0.015748	0.0431861	0.286556	0.306315	0	0	-0.212621	-0.00620138	0.0549615	0.154563	-0.245637	-0.176213	0.990691	0.198509	0	0	-0.165825	-0.217066	-0.182495	0.853757	1.08665	0	0
1.91	0.0814723	0.026682	0.018806	1.81757	0.982418	-0.244219	-0.317141	0.0164749	-0.137577	0.113861	0.418113	0	0	0.35739	0.0161369	0.0662007	0.212681	0.306653	0	0	-0.211655	-0.0066953	0.0590728	0.160461	-0.246754	-0.171835	0.99568	0.198477	0	0	-0.168769	-0.214265	-0.191313	0.843757	1.08849	0	0
1.92	0.0803885	0.0260187	0.0145713	1.83034	0.97981	-0.244262	-0.32814	0.0159904	-0.144276	0.11666	0.426112	0	0	0.34491	0.0161166	0.0842614	0.144613	0.307485	0	0	-0.210072	-0.00805695	0.0624117	0.166396	-0.24693	-0.166967	0.99785	0.199485	0	0	-0.173015	-0.212232	-0.199277	0.836168	1.0959	0	0
1.93	0.0790019	0.0246353	0.0112209	1.84323	0.977154	-0.244316	-0.338639	0.0168798	-0.144998	0.119862	0.430473	0	0	0.333355	0.014669	0.108551	0.0841498	0.307344	0	0	-0.207879	-0.00870861	0.0649872	0.171558	-0.245888	-0.164224	0.999169	0.198401	0	0	-0.177512	-0.211272	-0.204408	0.827802	1.09103	0	0
1.94	0.0773287	0.0235536	0.00865046	1.85623	0.97452	-0.244492	-0.347346	0.0171863	-0.149944	0.126522	0.436319	0	0	0.32543	0.0133902	0.125112	0.0376015	0.307096	0	0	-0.205111	-0.00972231	0.0656542	0.176864	-0.243901	-0.16099	0.998695	0.198358	0	0	-0.182252	-0.210019	-0.210666	0.819022	1.09194	0	0
1.95	0.0746505	0.0232664	0.00516962	1.86923	0.971915	-0.244759	-0.352686	0.0155676	-0.155471	0.138863	0.443474	0	0	0.322967	0.0128378	0.132512	0.0090548	0.308853	0	0	-0.201265	-0.0117188	0.0661692	0.182389	-0.241301	-0.157326	0.996399	0.199004	0	0	-0.186352	-0.208327	-0.217432	0.809345	1.09678	0	0
1.96	0.0711234	0.0229146	7.12517e-05	1.88218	0.969386	-0.245004	-0.354594	0.013296	-0.156811	0.155097	0.449549	0	0	0.325326	0.0119383	0.138992	0	0.316433	0	0	-0.196658	-0.013781	0.0683556	0.187072	-0.238294	-0.155268	0.99335	0.198159	0	0	-0.189141	-0.206455	-0.223294	0.798749	1.09282	0	0
1.97	0.0695322	0.0242363	-0.00432057	1.89545	0.967208	-0.245411	-0.358919	0.00897941	-0.160212	0.171014	0.454999	0	0	0.328508	0.0139711	0.13938	0	0.319307	0	0	-0.193736	-0.017714	0.0685851	0.191441	-0.234863	-0.151296	0.988473	0.198461	0	0	-0.193076	-0.204883	-0.22929	0.78941	1.0962	0	0
1.98	0.0674989	0.0257899	-0.00821615	1.90882	0.96526	-0.245916	-0.362019	0.00407532	-0.164566	0.188527	0.458373	0	0	0.33465	0.0176487	0.138309	0.0135716	0.326816	0	0	-0.190488	-0.021913	0.0687741	0.193845	-0.231029	-0.148801	0.98373	0.19828	0	0	-0.195529	-0.203264	-0.234851	0.77831	1.09429	0	0
1.99	0.0675177	0.0285532	-0.0118494	1.92248	0.963714	-0.246501	-0.36699	-0.0026123	-0.16928	0.206873	0.460154	0	0	0.339429	0.0236065	0.136351	0.0398335	0.330213	0	0	-0.189232	-0.0276117	0.0686061	0.194557	-0.226759	-0.146924	0.979654	0.198339	0	0	-0.198521	-0.202175	-0.239601	0.76972	1.09505	0	0
2	0.0686182	0.0309556	-0.0150853	1.93643	0.962464	-0.247299	-0.371645	-0.00974735	-0.175797	0.228738	0.463552	0	0	0.342413	0.029778	0.13734	0.0723149	0.332683	0	0	-0.188869	-0.0325878	0.0678759	0.193529	-0.222746	-0.14501	0.976664	0.19896	0	0	-0.201495	-0.200694	-0.244837	0.762482	1.10002	0	0
2.01	0.0693168	0.0317005	-0.0182502	1.95065	0.961372	-0.248139	-0.375356	-0.0150902	-0.176335	0.251709	0.457593	0	0	0.345436	0.0343553	0.136469	0.107864	0.335729	0	0	-0.187676	-0.0355499	0.068619	0.18973	-0.218936	-0.145853	0.974829	0.198396	0	0	-0.203839	-0.199739	-0.245585	0.756071	1.0967	0	0
2.02	0.070801	0.0327961	-0.0209192	1.96515	0.960507	-0.249082	-0.379189	-0.0210613	-0.178995	0.276201	0.45228	0	0	0.345594	0.0400656	0.137141	0.139307	0.335863	0	0	-0.186885	-0.0389013	0.0688337	0.184462	-0.21504	-0.146579	0.972553	0.198375	0	0	-0.207338	-0.199068	-0.243925	0.753179	1.0978	0	0
2.03	0.0722983	0.0351397	-0.0242165	1.97987	0.959852	-0.250113	-0.381395	-0.0294973	-0.184546	0.303829	0.449735	0	0	0.342891	0.047418	0.139393	0.16324	0.331868	0	0	-0.1857	-0.0437083	0.0691885	0.17822	-0.211008	-0.147164	0.969086	0.199026	0	0	-0.21029	-0.197961	-0.245375	0.749419	1.10374	0	0
2.04	0.073207	0.0372997	-0.0288415	1.9947	0.95941	-0.251083	-0.381347	-0.0381527	-0.181621	0.333684	0.435156	0	0	0.336325	0.0521604	0.139608	0.173655	0.312375	0	0	-0.183617	-0.0483248	0.0717397	0.170012	-0.20657	-0.151236	0.965707	0.198164	0	0	-0.211503	-0.197943	-0.241813	0.743365	1.10002	0	0
2.05	0.0744438	0.0401943	-0.0336363	2.00978	0.959231	-0.252179	-0.37907	-0.0486548	-0.182825	0.368294	0.423562	0	0	0.323111	0.0553873	0.140965	0.174732	0.289286	0	0	-0.181088	-0.0536313	0.073556	0.161277	-0.201545	-0.155655	0.960734	0.197882	0	0	-0.21338	-0.197335	-0.240684	0.737932	1.1017	0	0
2.06	0.0754818	0.0438673	-0.0389338	2.02506	0.959252	-0.253308	-0.372875	-0.0616161	-0.19047	0.409834	0.408336	0	0	0.307717	0.0576275	0.138207	0.172184	0.261036	0	0	-0.177439	-0.0596453	0.0755039	0.152124	-0.196242	-0.160513	0.953947	0.197202	0	0	-0.216585	-0.196401	-0.241101	0.735748	1.11269	0	0
2.07	0.0760731	0.0455732	-0.0458571	2.04005	0.959503	-0.254108	-0.362196	-0.0722052	-0.187863	0.456959	0.392451	0	0	0.296421	0.057091	0.132906	0.178923	0.247768	0	0	-0.173842	-0.0637004	0.079903	0.142899	-0.191096	-0.166067	0.946344	0.197207	0	0	-0.218422	-0.196323	-0.237712	0.735309	1.10567	0	0
2.08	0.0771394	0.0483852	-0.0526353	2.05479	0.960032	-0.255016	-0.348068	-0.0856742	-0.184705	0.509595	0.369101	0	0	0.290792	0.059455	0.12145	0.19726	0.236304	0	0	-0.171203	-0.0687307	0.0837363	0.134218	-0.185917	-0.171692	0.937629	0.196468	0	0	-0.219117	-0.195891	-0.235466	0.73457	1.11781	0	0
2.09	0.0787709	0.0513628	-0.0584721	2.06943	0.96076	-0.256071	-0.330802	-0.0994898	-0.179584	0.567904	0.344507	0	0	0.288838	0.0633906	0.108117	0.224796	0.232905	0	0	-0.169143	-0.0733977	0.0866603	0.125018	-0.180802	-0.177936	0.92889	0.196926	0	0	-0.218742	-0.196434	-0.230602	0.734853	1.10911	0	0
2.1	0.079081	0.056508	-0.0618792	2.0837	0.961501	-0.257497	-0.307647	-0.117358	-0.177388	0.632041	0.313669	0	0	0.291941	0.071146	0.0962997	0.257221	0.233197	0	0	-0.166171	-0.0797239	0.0857193	0.116851	-0.175625	-0.182397	0.918903	0.196694	0	0	-0.217424	-0.197188	-0.226958	0.73569	1.11122	0	0
2.11	0.0795033	0.0634733	-0.0626997	2.09768	0.962413	-0.259283	-0.281958	-0.137165	-0.180837	0.699715	0.276258	0	0	0.296513	0.0825777	0.0886498	0.293099	0.241203	0	0	-0.16395	-0.0874195	0.08151	0.109144	-0.170977	-0.184889	0.908619	0.195373	0	0	-0.214766	-0.198454	-0.222885	0.735327	1.12326	0	0
2.12	0.080246	0.0706389	-0.0622265	2.11127	0.963514	-0.261184	-0.255136	-0.155602	-0.17912	0.764645	0.243912	0	0	0.297842	0.0944373	0.0834617	0.322895	0.248903	0	0	-0.163016	-0.0949066	0.0767616	0.102306	-0.166519	-0.188313	0.89685	0.196322	0	0	-0.210579	-0.201289	-0.213102	0.737837	1.11475	0	0
2.13	0.0813442	0.0779412	-0.0602793	2.12456	0.964772	-0.263242	-0.228078	-0.173264	-0.177213	0.827058	0.207441	0	0	0.2942	0.10673	0.0812936	0.34434	0.258922	0	0	-0.163062	-0.101867	0.0706392	0.0960487	-0.162016	-0.192946	0.884444	0.196368	0	0	-0.204704	-0.204536	-0.201057	0.74023	1.11637	0	0
2.14	0.0828711	0.0850338	-0.0568526	2.1376	0.966218	-0.26537	-0.201707	-0.189567	-0.174704	0.886222	0.165595	0	0	0.286337	0.118785	0.083019	0.358869	0.270715	0	0	-0.164054	-0.108091	0.0633169	0.0900236	-0.157784	-0.197888	0.872225	0.195149	0	0	-0.196965	-0.208317	-0.187244	0.742444	1.12739	0	0
2.15	0.0848481	0.0906078	-0.0525698	2.15031	0.96783	-0.267437	-0.175743	-0.203041	-0.17139	0.942214	0.129924	0	0	0.274851	0.129066	0.0854958	0.367147	0.278635	0	0	-0.166129	-0.112206	0.0555917	0.0839296	-0.153778	-0.203394	0.861199	0.196337	0	0	-0.187247	-0.212913	-0.170339	0.74529	1.11887	0	0
2.16	0.0887111	0.0938064	-0.0487288	2.16287	0.969675	-0.269327	-0.151605	-0.213414	-0.1678	0.99356	0.0958408	0	0	0.258654	0.136439	0.08544	0.370922	0.287012	0	0	-0.170279	-0.113564	0.0476851	0.0786468	-0.151074	-0.20575	0.849306	0.195368	0	0	-0.177005	-0.216537	-0.156039	0.74771	1.12683	0	0
2.17	0.0924823	0.0946438	-0.0454637	2.17516	0.971605	-0.271056	-0.125689	-0.220968	-0.163715	1.04079	0.0412321	0	0	0.241331	0.140733	0.0851602	0.373081	0.297264	0	0	-0.174648	-0.111986	0.041682	0.0730564	-0.149308	-0.209183	0.837955	0.196354	0	0	-0.164683	-0.221634	-0.134015	0.750279	1.12136	0	0
